{"title":"Prince Royce - Close To You (Premios Juventud 2012)","uid":7494403,"size":104954274,"categoryP":"video","categoryS":"music_videos","magnet":"?xt=urn:btih:e966ed981ff0fa72db9e62d6ef465879c5614134&amp;dn=Prince+Royce+-+Close+To+You+%28Premios+Juventud+2012%29&amp;tr=udp%3A%2F%2Ftracker.openbittorrent.com%3A80&amp;tr=udp%3A%2F%2Fopen.demonii.com%3A1337&amp;tr=udp%3A%2F%2Ftracker.coppersurfer.tk%3A6969&amp;tr=udp%3A%2F%2Fexodus.desync.com%3A6969","seeders":1,"leechers":0,"uploader":"MusicVideos-HQ","files":1,"time":1343835511,"description":"General\n\n\nFormat                         : MPEG-4\nFormat profile                 : Base Media\nCodec ID                       : isom\nFile size                      : 100 MiB\nDuration                       : 3mn 44s\nOverall bit rate mode          : Variable\nOverall bit rate               : 3 741 Kbps\nEncoded date                   : UTC 2012-07-30 03:53:14\nTagged date                    : UTC 2012-07-30 03:53:14\n\nVideo\nID                             : 1\nFormat                         : AVC\nFormat/Info                    : Advanced Video Codec\nFormat profile                 : &lt;a class=&quot;__cf_email__&quot; href=&quot;/cdn-cgi/l/email-protection&quot; data-cfemail=&quot;6921000e0129255a4759&quot;&gt;[email&amp;#160;protected]&lt;/a&gt;&lt;script cf-hash='f9e31' type=&quot;text/javascript&quot;&gt;\n/* &lt;![CDATA[ */!function(){try{var t=&quot;currentScript&quot;in document?document.currentScript:function(){for(var t=document.getElementsByTagName(&quot;script&quot;),e=t.length;e--;)if(t[e].getAttribute(&quot;cf-hash&quot;))return t[e]}();if(t&amp;&amp;t.previousSibling){var e,r,n,i,c=t.previousSibling,a=c.getAttribute(&quot;data-cfemail&quot;);if(a){for(e=&quot;&quot;,r=parseInt(a.substr(0,2),16),n=2;a.length-n;n+=2)i=parseInt(a.substr(n,2),16)^r,e+=String.fromCharCode(i);e=document.createTextNode(e),c.parentNode.replaceChild(e,c)}}}catch(u){}}();/* ]]&gt; */&lt;/script&gt;\nFormat settings, CABAC         : Yes\nFormat settings, ReFrames      : 2 frames\nCodec ID                       : avc1\nCodec ID/Info                  : Advanced Video Coding\nDuration                       : 3mn 44s\nBit rate                       : 3 561 Kbps\nMaximum bit rate               : 5 633 Kbps\nWidth                          : 640 pixels\nHeight                         : 480 pixels\nDisplay aspect ratio           : 4:3\nFrame rate mode                : Constant\nFrame rate                     : 29.970 fps\nColor space                    : YUV\nChroma subsampling             : 4:2:0\nBit depth                      : 8 bits\nScan type                      : Progressive\nBits/(Pixel*Frame)             : 0.387\nStream size                    : 94.7 MiB (95%)\n\n\nAudio\nID                             : 2\nFormat                         : AAC\nFormat/Info                    : Advanced Audio Codec\nFormat profile                 : LC\nCodec ID                       : 40\nDuration                       : 3mn 44s\nBit rate mode                  : Variable\nBit rate                       : 192 Kbps\nMaximum bit rate               : 212 Kbps\nChannel(s)                     : 2 channels\nChannel positions              : Front: L R\nSampling rate                  : 44.1 KHz\nCompression mode               : Lossy\nDelay relative to video        : -667ms\nStream size                    : 5.14 MiB (5%)\n","torrent":{"xt":"urn:btih:e966ed981ff0fa72db9e62d6ef465879c5614134","amp;dn":"Prince+Royce+-+Close+To+You+%28Premios+Juventud+2012%29","amp;tr":["udp%3A%2F%2Ftracker.openbittorrent.com%3A80","udp%3A%2F%2Fopen.demonii.com%3A1337","udp%3A%2F%2Ftracker.coppersurfer.tk%3A6969","udp%3A%2F%2Fexodus.desync.com%3A6969"],"infoHash":"e966ed981ff0fa72db9e62d6ef465879c5614134","infoHashBuffer":{"type":"Buffer","data":[233,102,237,152,31,240,250,114,219,158,98,214,239,70,88,121,197,97,65,52]},"announce":[],"urlList":[]}}